{"title":"OSU_VS_Wisconsin_First_Half_720p_3-6-2011_TTL","uid":6224523,"size":858659095,"categoryP":"video","categoryS":"hd___tv_shows","magnet":"?xt=urn:btih:8af3b3d4f647980797b0e01dcad8429e541c1cc4&amp;dn=OSU_VS_Wisconsin_First_Half_720p_3-6-2011_TTL&amp;tr=udp%3A%2F%2Ftracker.openbittorrent.com%3A80&amp;tr=udp%3A%2F%2Fopen.demonii.com%3A1337&amp;tr=udp%3A%2F%2Ftracker.coppersurfer.tk%3A6969&amp;tr=udp%3A%2F%2Fexodus.desync.com%3A6969","seeders":0,"leechers":0,"uploader":"thetorrentlord","files":2,"time":1299466691,"description":"GO BUCKS!!!!!!!!!!!!!!!!     Enjoy and please share.\t\t\t\t\t\t\t\n\n\t\t\t\t\t\t\t\t\t\t\t\t\t\n\n\t\t\t\t\t\t\t\t\t\t\t\t\t\n\n******************************************************************************************************\n\n****************************************************************************************************** \n\n                                                           \t\t\t\t\t\t\n\n\t\t\t\t\t\t\t\t\t\t\t\t\t\n\n\t\t\tOSU_VS_Wisconsin_First_Half_720p_20110306_TTL.avi\nFormat                           : AVI\nFormat/Info                      : Audio Video Interleave\nFile size                        : 819 MiB\nDuration                         : 50mn 55s\nOverall bit rate                 : 2 248 Kbps\nMovie name                       : OSU_VS_Wisconsin_First_Half_720p_20110306_TTL.mpg\nDirector                         : created.with.SUPER(C).v2010.bld.37\nWriting application              : SUPER(C)   \n\nVideo\nID                               : 0\nFormat                           : MPEG-4 Visual\nFormat profile                   : Simple@L3\nFormat settings, BVOP            : No\nFormat settings, QPel            : No\nFormat settings, GMC             : No warppoints\nFormat settings, Matrix          : Default (H.263)\nCodec ID                         : XVID\nCodec ID/Hint                    : XviD\nDuration                         : 25mn 27s\nBit rate                         : 4 371 Kbps\nWidth                            : 1 280 pixels\nHeight                           : 720 pixels\nDisplay aspect ratio             : 16:9\nFrame rate                       : 29.970 fps\nColor space                      : YUV\nChroma subsampling               : 4:2:0\nBit depth                        : 8 bits\nScan type                        : Progressive\nBits/(Pixel*Frame)               : 0.158\nStream size                      : 796 MiB (97%)\nWriting library                  : XviD 1.1.2 (UTC 2006-11-01)\n\nAudio\nID                               : 1\nFormat                           : MPEG Audio\nFormat version                   : Version 2\nFormat profile                   : Layer 3\nMode                             : Joint stereo\nMode extension                   : MS Stereo\nCodec ID                         : 55\nCodec ID/Hint                    : MP3\nDuration                         : 50mn 55s\nBit rate mode                    : Constant\nBit rate                         : 112 Kbps\nChannel(s)                       : 2 channels\nSampling rate                    : 22.05 KHz\nStream size                      : 20.4 MiB (2%)\nAlignment                        : Aligned on interleaves\nInterleave, duration             : 26 ms (0.78 video frame)\nInterleave, preload duration     : 26 ms\n\n","torrent":{"xt":"urn:btih:8af3b3d4f647980797b0e01dcad8429e541c1cc4","amp;dn":"OSU_VS_Wisconsin_First_Half_720p_3-6-2011_TTL","amp;tr":["udp%3A%2F%2Ftracker.openbittorrent.com%3A80","udp%3A%2F%2Fopen.demonii.com%3A1337","udp%3A%2F%2Ftracker.coppersurfer.tk%3A6969","udp%3A%2F%2Fexodus.desync.com%3A6969"],"infoHash":"8af3b3d4f647980797b0e01dcad8429e541c1cc4","infoHashBuffer":{"type":"Buffer","data":[138,243,179,212,246,71,152,7,151,176,224,29,202,216,66,158,84,28,28,196]},"announce":[],"urlList":[]}}